<mxfile host="app.diagrams.net" modified="2024-06-05T01:47:20.941Z" agent="Mozilla/5.0 (Windows NT 10.0; Win64; x64) AppleWebKit/537.36 (KHTML, like Gecko) Chrome/125.0.0.0 Safari/537.36" etag="fG62k0s3PvKJXKoLJPm0" version="24.4.0" type="device">
  <diagram name="Page-1" id="e7e014a7-5840-1c2e-5031-d8a46d1fe8dd">
    <mxGraphModel dx="1313" dy="713" grid="1" gridSize="10" guides="1" tooltips="1" connect="1" arrows="1" fold="1" page="1" pageScale="1" pageWidth="1169" pageHeight="826" background="none" math="0" shadow="0">
      <root>
        <mxCell id="0" />
        <mxCell id="1" parent="0" />
        <mxCell id="2" value="Tourist" style="swimlane;whiteSpace=wrap" parent="1" vertex="1">
          <mxGeometry x="10" y="128" width="380" height="652" as="geometry" />
        </mxCell>
        <mxCell id="qwTPMV4nGQrtJsvSjP1--45" value="" style="ellipse;html=1;shape=startState;fillColor=#000000;strokeColor=#00ff00;" parent="2" vertex="1">
          <mxGeometry x="100" y="102" width="30" height="30" as="geometry" />
        </mxCell>
        <mxCell id="qwTPMV4nGQrtJsvSjP1--46" value="" style="edgeStyle=orthogonalEdgeStyle;html=1;verticalAlign=bottom;endArrow=open;endSize=8;strokeColor=#00ff00;rounded=0;exitX=0.5;exitY=1;exitDx=0;exitDy=0;entryX=0.5;entryY=0;entryDx=0;entryDy=0;" parent="2" source="qwTPMV4nGQrtJsvSjP1--45" target="SOqKYxYSpYif998J_ZQ7-20" edge="1">
          <mxGeometry relative="1" as="geometry">
            <mxPoint x="110" y="112.00000000000011" as="targetPoint" />
          </mxGeometry>
        </mxCell>
        <mxCell id="qwTPMV4nGQrtJsvSjP1--56" style="edgeStyle=orthogonalEdgeStyle;rounded=0;orthogonalLoop=1;jettySize=auto;html=1;entryX=0;entryY=0.5;entryDx=0;entryDy=0;exitX=1;exitY=0.5;exitDx=0;exitDy=0;" parent="2" source="SOqKYxYSpYif998J_ZQ7-20" target="qwTPMV4nGQrtJsvSjP1--55" edge="1">
          <mxGeometry relative="1" as="geometry">
            <Array as="points" />
            <mxPoint x="320.6100795755974" y="292.0769230769231" as="sourcePoint" />
          </mxGeometry>
        </mxCell>
        <mxCell id="qwTPMV4nGQrtJsvSjP1--88" value="" style="edgeStyle=orthogonalEdgeStyle;rounded=0;orthogonalLoop=1;jettySize=auto;html=1;exitX=1;exitY=0.5;exitDx=0;exitDy=0;exitPerimeter=0;" parent="2" source="utZC5h3sYK5zhbWpHx1L-13" target="qwTPMV4nGQrtJsvSjP1--87" edge="1">
          <mxGeometry relative="1" as="geometry">
            <mxPoint x="177.5" y="471" as="sourcePoint" />
          </mxGeometry>
        </mxCell>
        <mxCell id="qwTPMV4nGQrtJsvSjP1--87" value="" style="ellipse;html=1;shape=endState;fillColor=strokeColor;" parent="2" vertex="1">
          <mxGeometry x="65" y="456" width="30" height="30" as="geometry" />
        </mxCell>
        <mxCell id="qwTPMV4nGQrtJsvSjP1--55" value="Tour Request" style="fontStyle=0;html=1;whiteSpace=wrap;strokeColor=default;gradientColor=none;" parent="2" vertex="1">
          <mxGeometry x="320" y="272" width="120" height="40" as="geometry" />
        </mxCell>
        <mxCell id="utZC5h3sYK5zhbWpHx1L-13" value="Obavjestenje" style="html=1;shape=mxgraph.infographic.ribbonSimple;notch1=20;notch2=0;align=center;verticalAlign=middle;fontSize=14;fontStyle=0;fillColor=#FFFFFF;whiteSpace=wrap;direction=west;" parent="2" vertex="1">
          <mxGeometry x="180" y="451" width="130" height="40" as="geometry" />
        </mxCell>
        <mxCell id="SOqKYxYSpYif998J_ZQ7-20" value="&lt;b&gt;Unos zahtjeva za ture&lt;/b&gt;" style="html=1;align=center;verticalAlign=top;rounded=1;absoluteArcSize=1;arcSize=10;dashed=0;whiteSpace=wrap;" parent="2" vertex="1">
          <mxGeometry x="50" y="272" width="130" height="40" as="geometry" />
        </mxCell>
        <mxCell id="4" value="Guide" style="swimlane;whiteSpace=wrap;startSize=23;" parent="1" vertex="1">
          <mxGeometry x="724.5" y="128" width="255.5" height="652" as="geometry">
            <mxRectangle x="724.5" y="128" width="70" height="30" as="alternateBounds" />
          </mxGeometry>
        </mxCell>
        <mxCell id="wIqXI_0vq_qm8hCG7Itc-54" value="" style="edgeStyle=orthogonalEdgeStyle;rounded=0;orthogonalLoop=1;jettySize=auto;html=1;" parent="4" target="wIqXI_0vq_qm8hCG7Itc-46" edge="1">
          <mxGeometry relative="1" as="geometry">
            <Array as="points">
              <mxPoint x="175.25" y="233" />
              <mxPoint x="175.25" y="233" />
            </Array>
            <mxPoint x="175.3055555555552" y="212" as="sourcePoint" />
          </mxGeometry>
        </mxCell>
        <mxCell id="8QEYzyCAj4foEgJl2GaD-6" value="Izbor datuma" style="rounded=1;whiteSpace=wrap;html=1;" parent="4" vertex="1">
          <mxGeometry x="55.5" y="192" width="144" height="38" as="geometry" />
        </mxCell>
        <mxCell id="8QEYzyCAj4foEgJl2GaD-19" value="da" style="text;html=1;align=center;verticalAlign=middle;resizable=0;points=[];autosize=1;strokeColor=none;fillColor=none;" parent="4" vertex="1">
          <mxGeometry x="42.25" y="342" width="40" height="30" as="geometry" />
        </mxCell>
        <mxCell id="wIqXI_0vq_qm8hCG7Itc-58" value="" style="edgeStyle=orthogonalEdgeStyle;rounded=0;orthogonalLoop=1;jettySize=auto;html=1;entryX=0;entryY=0;entryDx=20;entryDy=20;entryPerimeter=0;" parent="4" source="8QEYzyCAj4foEgJl2GaD-20" target="8QEYzyCAj4foEgJl2GaD-21" edge="1">
          <mxGeometry relative="1" as="geometry" />
        </mxCell>
        <mxCell id="8QEYzyCAj4foEgJl2GaD-20" value="Prihvati deo zahteva" style="html=1;shape=mxgraph.infographic.ribbonSimple;notch1=0;notch2=20;align=center;verticalAlign=middle;fontSize=14;fontStyle=0;fillColor=#FFFFFF;whiteSpace=wrap;direction=west;" parent="4" vertex="1">
          <mxGeometry x="105.12" y="395" width="140.75" height="40" as="geometry" />
        </mxCell>
        <mxCell id="8QEYzyCAj4foEgJl2GaD-21" value="Prihvacen deo zahteva" style="html=1;shape=mxgraph.infographic.ribbonSimple;notch1=20;notch2=0;align=center;verticalAlign=middle;fontSize=14;fontStyle=0;fillColor=#FFFFFF;whiteSpace=wrap;direction=west;" parent="4" vertex="1">
          <mxGeometry x="-44.5" y="395" width="130" height="40" as="geometry" />
        </mxCell>
        <mxCell id="wIqXI_0vq_qm8hCG7Itc-55" style="edgeStyle=orthogonalEdgeStyle;rounded=0;orthogonalLoop=1;jettySize=auto;html=1;exitX=1;exitY=0.5;exitDx=0;exitDy=0;entryX=1;entryY=0.5;entryDx=0;entryDy=0;" parent="4" source="wIqXI_0vq_qm8hCG7Itc-46" target="8QEYzyCAj4foEgJl2GaD-6" edge="1">
          <mxGeometry relative="1" as="geometry" />
        </mxCell>
        <mxCell id="wIqXI_0vq_qm8hCG7Itc-57" style="edgeStyle=orthogonalEdgeStyle;rounded=0;orthogonalLoop=1;jettySize=auto;html=1;" parent="4" source="wIqXI_0vq_qm8hCG7Itc-46" target="8QEYzyCAj4foEgJl2GaD-20" edge="1">
          <mxGeometry relative="1" as="geometry" />
        </mxCell>
        <mxCell id="wIqXI_0vq_qm8hCG7Itc-46" value="slobodan datum?" style="rhombus;whiteSpace=wrap;html=1;" parent="4" vertex="1">
          <mxGeometry x="135.5" y="273" width="80" height="55" as="geometry" />
        </mxCell>
        <mxCell id="wIqXI_0vq_qm8hCG7Itc-56" value="ne&lt;div&gt;&lt;br&gt;&lt;/div&gt;" style="text;html=1;align=center;verticalAlign=middle;resizable=0;points=[];autosize=1;strokeColor=none;fillColor=none;" parent="4" vertex="1">
          <mxGeometry x="201" y="273" width="40" height="40" as="geometry" />
        </mxCell>
        <mxCell id="Sk_DbqH1aSQf2yQeuHSW-11" value="Izbor dela zahteva za slozenu turu" style="rounded=1;whiteSpace=wrap;html=1;" parent="4" vertex="1">
          <mxGeometry x="57" y="92" width="144" height="38" as="geometry" />
        </mxCell>
        <mxCell id="Sk_DbqH1aSQf2yQeuHSW-12" style="edgeStyle=orthogonalEdgeStyle;rounded=0;orthogonalLoop=1;jettySize=auto;html=1;exitX=0.485;exitY=0.985;exitDx=0;exitDy=0;entryX=0.5;entryY=0;entryDx=0;entryDy=0;exitPerimeter=0;" parent="4" source="Sk_DbqH1aSQf2yQeuHSW-11" target="8QEYzyCAj4foEgJl2GaD-6" edge="1">
          <mxGeometry relative="1" as="geometry">
            <mxPoint x="186" y="338" as="sourcePoint" />
            <mxPoint x="186" y="405" as="targetPoint" />
          </mxGeometry>
        </mxCell>
        <mxCell id="qwTPMV4nGQrtJsvSjP1--84" value="" style="edgeStyle=orthogonalEdgeStyle;rounded=0;orthogonalLoop=1;jettySize=auto;html=1;entryX=0;entryY=0;entryDx=20;entryDy=20;entryPerimeter=0;exitX=1;exitY=0.5;exitDx=0;exitDy=0;exitPerimeter=0;" parent="1" source="utZC5h3sYK5zhbWpHx1L-12" target="utZC5h3sYK5zhbWpHx1L-13" edge="1">
          <mxGeometry relative="1" as="geometry">
            <mxPoint x="360" y="599" as="sourcePoint" />
            <mxPoint x="292.5" y="599" as="targetPoint" />
          </mxGeometry>
        </mxCell>
        <mxCell id="3" value="Sistem" style="swimlane;whiteSpace=wrap;startSize=23;" parent="1" vertex="1">
          <mxGeometry x="390" y="128" width="334.5" height="652" as="geometry" />
        </mxCell>
        <mxCell id="wIqXI_0vq_qm8hCG7Itc-65" style="edgeStyle=orthogonalEdgeStyle;rounded=0;orthogonalLoop=1;jettySize=auto;html=1;exitX=0.808;exitY=1.003;exitDx=0;exitDy=0;exitPerimeter=0;entryX=0.283;entryY=0.904;entryDx=0;entryDy=0;entryPerimeter=0;" parent="3" source="qwTPMV4nGQrtJsvSjP1--61" target="wIqXI_0vq_qm8hCG7Itc-63" edge="1">
          <mxGeometry relative="1" as="geometry">
            <mxPoint x="186" y="342" as="targetPoint" />
            <Array as="points">
              <mxPoint x="187" y="397" />
              <mxPoint x="187" y="342" />
              <mxPoint x="208" y="342" />
            </Array>
          </mxGeometry>
        </mxCell>
        <mxCell id="qwTPMV4nGQrtJsvSjP1--58" value="" style="verticalLabelPosition=bottom;verticalAlign=top;html=1;shape=mxgraph.flowchart.collate;" parent="3" vertex="1">
          <mxGeometry x="85" y="372" width="55.5" height="52" as="geometry" />
        </mxCell>
        <mxCell id="qwTPMV4nGQrtJsvSjP1--61" value="48h pre prvog datuma" style="text;html=1;align=center;verticalAlign=middle;resizable=0;points=[];autosize=1;strokeColor=none;fillColor=none;" parent="3" vertex="1">
          <mxGeometry x="8.75" y="367" width="140" height="30" as="geometry" />
        </mxCell>
        <mxCell id="qwTPMV4nGQrtJsvSjP1--82" value="" style="edgeStyle=orthogonalEdgeStyle;rounded=0;orthogonalLoop=1;jettySize=auto;html=1;entryX=0;entryY=0;entryDx=0;entryDy=20;entryPerimeter=0;" parent="3" source="qwTPMV4nGQrtJsvSjP1--63" target="utZC5h3sYK5zhbWpHx1L-12" edge="1">
          <mxGeometry relative="1" as="geometry">
            <mxPoint x="47.5" y="471" as="targetPoint" />
          </mxGeometry>
        </mxCell>
        <mxCell id="qwTPMV4nGQrtJsvSjP1--105" value="" style="edgeStyle=orthogonalEdgeStyle;rounded=0;orthogonalLoop=1;jettySize=auto;html=1;" parent="3" source="qwTPMV4nGQrtJsvSjP1--63" target="qwTPMV4nGQrtJsvSjP1--104" edge="1">
          <mxGeometry relative="1" as="geometry" />
        </mxCell>
        <mxCell id="qwTPMV4nGQrtJsvSjP1--63" value="svi dijelovi prihvaceni" style="rhombus;whiteSpace=wrap;html=1;" parent="3" vertex="1">
          <mxGeometry x="186" y="442" width="80" height="58" as="geometry" />
        </mxCell>
        <mxCell id="qwTPMV4nGQrtJsvSjP1--91" value="ne" style="text;html=1;align=center;verticalAlign=middle;resizable=0;points=[];autosize=1;strokeColor=none;fillColor=none;" parent="3" vertex="1">
          <mxGeometry x="142.5" y="442" width="40" height="30" as="geometry" />
        </mxCell>
        <mxCell id="qwTPMV4nGQrtJsvSjP1--104" value="" style="ellipse;html=1;shape=endState;fillColor=strokeColor;" parent="3" vertex="1">
          <mxGeometry x="211" y="542" width="30" height="30" as="geometry" />
        </mxCell>
        <mxCell id="utZC5h3sYK5zhbWpHx1L-7" value="" style="html=1;align=center;verticalAlign=top;rounded=1;absoluteArcSize=1;arcSize=10;dashed=0;whiteSpace=wrap;" parent="3" vertex="1">
          <mxGeometry x="60" y="132" width="140" height="40" as="geometry" />
        </mxCell>
        <mxCell id="utZC5h3sYK5zhbWpHx1L-12" value="Otkazi zahtjev" style="html=1;shape=mxgraph.infographic.ribbonSimple;notch1=0;notch2=20;align=center;verticalAlign=middle;fontSize=14;fontStyle=0;fillColor=#FFFFFF;whiteSpace=wrap;direction=west;" parent="3" vertex="1">
          <mxGeometry x="15" y="451" width="127.5" height="40" as="geometry" />
        </mxCell>
        <mxCell id="8QEYzyCAj4foEgJl2GaD-4" value="Pronadji neprihvacene&amp;nbsp; dijelove ture" style="text;html=1;align=center;verticalAlign=middle;whiteSpace=wrap;rounded=0;" parent="3" vertex="1">
          <mxGeometry x="70" y="137" width="130" height="30" as="geometry" />
        </mxCell>
        <mxCell id="qwTPMV4nGQrtJsvSjP1--107" value="da" style="text;html=1;align=center;verticalAlign=middle;resizable=0;points=[];autosize=1;strokeColor=none;fillColor=none;" parent="3" vertex="1">
          <mxGeometry x="186" y="500" width="40" height="30" as="geometry" />
        </mxCell>
        <mxCell id="wIqXI_0vq_qm8hCG7Itc-29" style="edgeStyle=orthogonalEdgeStyle;rounded=0;orthogonalLoop=1;jettySize=auto;html=1;entryX=0.692;entryY=1.026;entryDx=0;entryDy=0;entryPerimeter=0;exitX=0.961;exitY=0.402;exitDx=0;exitDy=0;exitPerimeter=0;" parent="3" source="Sk_DbqH1aSQf2yQeuHSW-9" target="utZC5h3sYK5zhbWpHx1L-7" edge="1">
          <mxGeometry relative="1" as="geometry">
            <mxPoint x="158" y="272" as="sourcePoint" />
            <Array as="points">
              <mxPoint x="158" y="272" />
              <mxPoint x="157" y="272" />
            </Array>
          </mxGeometry>
        </mxCell>
        <mxCell id="wIqXI_0vq_qm8hCG7Itc-60" style="edgeStyle=orthogonalEdgeStyle;rounded=0;orthogonalLoop=1;jettySize=auto;html=1;exitX=1.266;exitY=0.713;exitDx=0;exitDy=0;exitPerimeter=0;entryX=0.5;entryY=0;entryDx=0;entryDy=0;entryPerimeter=0;" parent="3" source="Sk_DbqH1aSQf2yQeuHSW-5" target="qwTPMV4nGQrtJsvSjP1--58" edge="1">
          <mxGeometry relative="1" as="geometry">
            <mxPoint x="202.5" y="348.68100000000027" as="targetPoint" />
            <Array as="points">
              <mxPoint x="107" y="312" />
              <mxPoint x="156" y="312" />
              <mxPoint x="156" y="360" />
              <mxPoint x="113" y="360" />
            </Array>
            <mxPoint x="157.75" y="312" as="sourcePoint" />
          </mxGeometry>
        </mxCell>
        <mxCell id="wIqXI_0vq_qm8hCG7Itc-66" style="edgeStyle=orthogonalEdgeStyle;rounded=0;orthogonalLoop=1;jettySize=auto;html=1;entryX=0.5;entryY=0;entryDx=0;entryDy=0;exitX=0.67;exitY=0.684;exitDx=0;exitDy=0;exitPerimeter=0;" parent="3" source="wIqXI_0vq_qm8hCG7Itc-63" target="qwTPMV4nGQrtJsvSjP1--63" edge="1">
          <mxGeometry relative="1" as="geometry" />
        </mxCell>
        <mxCell id="wIqXI_0vq_qm8hCG7Itc-63" value="" style="html=1;points=[];perimeter=orthogonalPerimeter;fillColor=strokeColor;direction=south;" parent="3" vertex="1">
          <mxGeometry x="200" y="367" width="80" height="5" as="geometry" />
        </mxCell>
        <mxCell id="Sk_DbqH1aSQf2yQeuHSW-5" value="" style="html=1;points=[];perimeter=orthogonalPerimeter;fillColor=strokeColor;direction=south;rotation=-90;" parent="3" vertex="1">
          <mxGeometry x="62.75" y="289.5" width="80" height="5" as="geometry" />
        </mxCell>
        <mxCell id="Sk_DbqH1aSQf2yQeuHSW-9" value="" style="line;strokeWidth=1;fillColor=none;align=left;verticalAlign=middle;spacingTop=-1;spacingLeft=3;spacingRight=3;rotatable=0;labelPosition=right;points=[];portConstraint=eastwest;strokeColor=inherit;fontFamily=Helvetica;fontSize=11;fontColor=default;labelBackgroundColor=default;" parent="3" vertex="1">
          <mxGeometry x="100.5" y="272" width="59.5" height="8" as="geometry" />
        </mxCell>
        <mxCell id="wIqXI_0vq_qm8hCG7Itc-64" style="edgeStyle=orthogonalEdgeStyle;rounded=0;orthogonalLoop=1;jettySize=auto;html=1;entryX=0.017;entryY=0.521;entryDx=0;entryDy=0;entryPerimeter=0;" parent="1" source="8QEYzyCAj4foEgJl2GaD-21" target="wIqXI_0vq_qm8hCG7Itc-63" edge="1">
          <mxGeometry relative="1" as="geometry">
            <Array as="points">
              <mxPoint x="660" y="543" />
              <mxPoint x="660" y="510" />
              <mxPoint x="690" y="510" />
              <mxPoint x="690" y="475" />
              <mxPoint x="628" y="475" />
            </Array>
          </mxGeometry>
        </mxCell>
        <mxCell id="SOqKYxYSpYif998J_ZQ7-4" value="" style="rounded=0;whiteSpace=wrap;html=1;" parent="1" vertex="1">
          <mxGeometry x="290" y="826" width="485" height="250" as="geometry" />
        </mxCell>
        <mxCell id="SOqKYxYSpYif998J_ZQ7-5" value="Unos zahtjeva za ture" style="text;html=1;align=center;verticalAlign=middle;resizable=0;points=[];autosize=1;strokeColor=none;fillColor=none;" parent="1" vertex="1">
          <mxGeometry x="290" y="836" width="140" height="30" as="geometry" />
        </mxCell>
        <mxCell id="SOqKYxYSpYif998J_ZQ7-9" value="" style="edgeStyle=orthogonalEdgeStyle;rounded=0;orthogonalLoop=1;jettySize=auto;html=1;" parent="1" source="SOqKYxYSpYif998J_ZQ7-6" target="SOqKYxYSpYif998J_ZQ7-8" edge="1">
          <mxGeometry relative="1" as="geometry" />
        </mxCell>
        <mxCell id="SOqKYxYSpYif998J_ZQ7-6" value="Unos podataka za segment" style="html=1;align=center;verticalAlign=top;rounded=1;absoluteArcSize=1;arcSize=10;dashed=0;whiteSpace=wrap;" parent="1" vertex="1">
          <mxGeometry x="315" y="886" width="140" height="40" as="geometry" />
        </mxCell>
        <mxCell id="SOqKYxYSpYif998J_ZQ7-11" value="" style="edgeStyle=orthogonalEdgeStyle;rounded=0;orthogonalLoop=1;jettySize=auto;html=1;" parent="1" source="SOqKYxYSpYif998J_ZQ7-8" target="SOqKYxYSpYif998J_ZQ7-10" edge="1">
          <mxGeometry relative="1" as="geometry" />
        </mxCell>
        <mxCell id="SOqKYxYSpYif998J_ZQ7-8" value="Tour Request Segment" style="fontStyle=0;html=1;whiteSpace=wrap;" parent="1" vertex="1">
          <mxGeometry x="325" y="1016" width="120" height="40" as="geometry" />
        </mxCell>
        <mxCell id="SOqKYxYSpYif998J_ZQ7-13" value="" style="edgeStyle=orthogonalEdgeStyle;rounded=0;orthogonalLoop=1;jettySize=auto;html=1;" parent="1" source="SOqKYxYSpYif998J_ZQ7-10" target="SOqKYxYSpYif998J_ZQ7-12" edge="1">
          <mxGeometry relative="1" as="geometry">
            <Array as="points">
              <mxPoint x="615" y="956" />
              <mxPoint x="615" y="956" />
            </Array>
          </mxGeometry>
        </mxCell>
        <mxCell id="SOqKYxYSpYif998J_ZQ7-10" value="dodaj segment" style="rhombus;whiteSpace=wrap;html=1;" parent="1" vertex="1">
          <mxGeometry x="585" y="1007" width="60" height="58" as="geometry" />
        </mxCell>
        <mxCell id="SOqKYxYSpYif998J_ZQ7-15" value="" style="edgeStyle=orthogonalEdgeStyle;rounded=0;orthogonalLoop=1;jettySize=auto;html=1;" parent="1" source="SOqKYxYSpYif998J_ZQ7-12" target="SOqKYxYSpYif998J_ZQ7-6" edge="1">
          <mxGeometry relative="1" as="geometry" />
        </mxCell>
        <mxCell id="SOqKYxYSpYif998J_ZQ7-12" value="Dodaj novi segment" style="html=1;align=center;verticalAlign=top;rounded=1;absoluteArcSize=1;arcSize=10;dashed=0;whiteSpace=wrap;" parent="1" vertex="1">
          <mxGeometry x="545" y="886" width="130" height="40" as="geometry" />
        </mxCell>
        <mxCell id="SOqKYxYSpYif998J_ZQ7-16" value="da" style="text;html=1;align=center;verticalAlign=middle;whiteSpace=wrap;rounded=0;" parent="1" vertex="1">
          <mxGeometry x="625" y="976" width="60" height="30" as="geometry" />
        </mxCell>
        <mxCell id="SOqKYxYSpYif998J_ZQ7-17" value="ne" style="text;html=1;align=center;verticalAlign=middle;resizable=0;points=[];autosize=1;strokeColor=none;fillColor=none;" parent="1" vertex="1">
          <mxGeometry x="635" y="1046" width="40" height="30" as="geometry" />
        </mxCell>
        <mxCell id="SOqKYxYSpYif998J_ZQ7-19" value="" style="endArrow=classic;html=1;rounded=0;" parent="1" edge="1">
          <mxGeometry width="50" height="50" relative="1" as="geometry">
            <mxPoint x="645" y="1035.23" as="sourcePoint" />
            <mxPoint x="725" y="1035.23" as="targetPoint" />
          </mxGeometry>
        </mxCell>
        <mxCell id="SOqKYxYSpYif998J_ZQ7-23" value="" style="ellipse;html=1;shape=endState;fillColor=strokeColor;" parent="1" vertex="1">
          <mxGeometry x="725" y="1021" width="30" height="30" as="geometry" />
        </mxCell>
        <mxCell id="8QEYzyCAj4foEgJl2GaD-7" style="edgeStyle=orthogonalEdgeStyle;rounded=0;orthogonalLoop=1;jettySize=auto;html=1;entryX=0;entryY=0.5;entryDx=0;entryDy=0;exitX=1;exitY=0.5;exitDx=0;exitDy=0;" parent="1" source="8QEYzyCAj4foEgJl2GaD-4" target="Sk_DbqH1aSQf2yQeuHSW-11" edge="1">
          <mxGeometry relative="1" as="geometry">
            <mxPoint x="766.73" y="208.408" as="targetPoint" />
            <mxPoint x="631.45" y="211.60000000000005" as="sourcePoint" />
            <Array as="points" />
          </mxGeometry>
        </mxCell>
        <mxCell id="Sk_DbqH1aSQf2yQeuHSW-10" value="" style="endArrow=classic;html=1;rounded=0;strokeColor=#000000;align=center;verticalAlign=bottom;fontFamily=Helvetica;fontSize=11;fontColor=default;labelBackgroundColor=default;edgeStyle=orthogonalEdgeStyle;endSize=8;" parent="1" edge="1">
          <mxGeometry width="50" height="50" relative="1" as="geometry">
            <mxPoint x="450" y="420" as="sourcePoint" />
            <mxPoint x="490" y="420" as="targetPoint" />
          </mxGeometry>
        </mxCell>
      </root>
    </mxGraphModel>
  </diagram>
</mxfile>
